<!DOCTYPE svg PUBLIC "-//W3C//DTD SVG 20010904//EN" "http://www.w3.org/TR/2001/REC-SVG-20010904/DTD/svg10.dtd">
<svg version="1.0" xmlns="http://www.w3.org/2000/svg" width="137px" height="77px" viewBox="0 0 1370 770" preserveAspectRatio="xMidYMid meet">
<g id="layer101" fill="#225a84" stroke="none">
 <path d="M645 760 c-11 -4 -161 -149 -333 -322 -306 -308 -312 -314 -312 -354 0 -53 31 -84 85 -84 38 0 49 9 320 280 l280 280 280 -280 c254 -254 283 -280 313 -280 18 0 41 4 51 10 24 12 45 64 37 92 -3 13 -151 168 -328 346 -335 334 -338 336 -393 312z"/>
 </g>

</svg>